%TF.GenerationSoftware,KiCad,Pcbnew,8.0.2-1*%
%TF.CreationDate,2024-09-02T18:13:03-04:00*%
%TF.ProjectId,usb-power,7573622d-706f-4776-9572-2e6b69636164,rev?*%
%TF.SameCoordinates,Original*%
%TF.FileFunction,Copper,L2,Bot*%
%TF.FilePolarity,Positive*%
%FSLAX46Y46*%
G04 Gerber Fmt 4.6, Leading zero omitted, Abs format (unit mm)*
G04 Created by KiCad (PCBNEW 8.0.2-1) date 2024-09-02 18:13:03*
%MOMM*%
%LPD*%
G01*
G04 APERTURE LIST*
G04 Aperture macros list*
%AMRoundRect*
0 Rectangle with rounded corners*
0 $1 Rounding radius*
0 $2 $3 $4 $5 $6 $7 $8 $9 X,Y pos of 4 corners*
0 Add a 4 corners polygon primitive as box body*
4,1,4,$2,$3,$4,$5,$6,$7,$8,$9,$2,$3,0*
0 Add four circle primitives for the rounded corners*
1,1,$1+$1,$2,$3*
1,1,$1+$1,$4,$5*
1,1,$1+$1,$6,$7*
1,1,$1+$1,$8,$9*
0 Add four rect primitives between the rounded corners*
20,1,$1+$1,$2,$3,$4,$5,0*
20,1,$1+$1,$4,$5,$6,$7,0*
20,1,$1+$1,$6,$7,$8,$9,0*
20,1,$1+$1,$8,$9,$2,$3,0*%
G04 Aperture macros list end*
%TA.AperFunction,ComponentPad*%
%ADD10C,1.824000*%
%TD*%
%TA.AperFunction,ComponentPad*%
%ADD11RoundRect,0.562500X-0.562500X1.687500X-0.562500X-1.687500X0.562500X-1.687500X0.562500X1.687500X0*%
%TD*%
%TA.AperFunction,ComponentPad*%
%ADD12RoundRect,0.500000X1.500000X0.500000X-1.500000X0.500000X-1.500000X-0.500000X1.500000X-0.500000X0*%
%TD*%
%TA.AperFunction,ComponentPad*%
%ADD13RoundRect,0.625000X0.625000X-1.625000X0.625000X1.625000X-0.625000X1.625000X-0.625000X-1.625000X0*%
%TD*%
%TA.AperFunction,ViaPad*%
%ADD14C,0.600000*%
%TD*%
G04 APERTURE END LIST*
D10*
%TO.P,J2,1,VBUS*%
%TO.N,+5V*%
X164326400Y-88839200D03*
%TO.P,J2,2,D-*%
%TO.N,unconnected-(J2-D--Pad2)*%
X164326400Y-91379200D03*
%TO.P,J2,3,D+*%
%TO.N,unconnected-(J2-D+-Pad3)*%
X164326400Y-93868400D03*
%TO.P,J2,4,GND*%
%TO.N,GND*%
X164326400Y-96256000D03*
%TD*%
D11*
%TO.P,J1,1*%
%TO.N,GND*%
X144706750Y-92031750D03*
D12*
%TO.P,J1,2*%
%TO.N,N/C*%
X141506750Y-96731750D03*
D13*
%TO.P,J1,3*%
%TO.N,+9V*%
X138506750Y-92031750D03*
%TD*%
D14*
%TO.N,GND*%
X152600000Y-89200000D03*
X159900000Y-89100000D03*
X161200000Y-89100000D03*
X162600000Y-87100000D03*
%TD*%
%TA.AperFunction,Conductor*%
%TO.N,GND*%
G36*
X168442539Y-85420185D02*
G01*
X168488294Y-85472989D01*
X168499500Y-85524500D01*
X168499500Y-99875500D01*
X168479815Y-99942539D01*
X168427011Y-99988294D01*
X168375500Y-99999500D01*
X131924500Y-99999500D01*
X131857461Y-99979815D01*
X131811706Y-99927011D01*
X131800500Y-99875500D01*
X131800500Y-96173716D01*
X139006250Y-96173716D01*
X139006250Y-97289778D01*
X139006251Y-97289784D01*
X139016863Y-97409165D01*
X139072839Y-97604795D01*
X139072840Y-97604798D01*
X139072841Y-97604799D01*
X139167052Y-97785157D01*
X139167054Y-97785159D01*
X139295640Y-97942859D01*
X139385621Y-98016228D01*
X139453343Y-98071448D01*
X139633701Y-98165659D01*
X139829332Y-98221636D01*
X139948713Y-98232250D01*
X143064786Y-98232249D01*
X143184168Y-98221636D01*
X143379799Y-98165659D01*
X143560157Y-98071448D01*
X143717859Y-97942859D01*
X143846448Y-97785157D01*
X143940659Y-97604799D01*
X143996636Y-97409168D01*
X144007250Y-97289787D01*
X144007249Y-96173714D01*
X143996636Y-96054332D01*
X143940659Y-95858701D01*
X143846448Y-95678343D01*
X143767617Y-95581664D01*
X143717859Y-95520640D01*
X143560159Y-95392054D01*
X143560160Y-95392054D01*
X143560157Y-95392052D01*
X143379799Y-95297841D01*
X143379798Y-95297840D01*
X143379795Y-95297839D01*
X143262579Y-95264300D01*
X143184168Y-95241864D01*
X143184165Y-95241863D01*
X143184163Y-95241863D01*
X143117852Y-95235967D01*
X143064787Y-95231250D01*
X143064782Y-95231250D01*
X139948721Y-95231250D01*
X139948715Y-95231250D01*
X139948714Y-95231251D01*
X139937066Y-95232286D01*
X139829334Y-95241863D01*
X139633704Y-95297839D01*
X139543522Y-95344946D01*
X139453343Y-95392052D01*
X139453341Y-95392053D01*
X139453340Y-95392054D01*
X139295640Y-95520640D01*
X139172502Y-95671659D01*
X139167052Y-95678343D01*
X139133026Y-95743482D01*
X139072839Y-95858704D01*
X139016864Y-96054333D01*
X139016863Y-96054336D01*
X139006250Y-96173716D01*
X131800500Y-96173716D01*
X131800500Y-90320802D01*
X136756250Y-90320802D01*
X136756250Y-93742698D01*
X136759126Y-93790976D01*
X136759126Y-93790980D01*
X136759127Y-93790981D01*
X136804813Y-94000999D01*
X136804816Y-94001010D01*
X136889427Y-94198595D01*
X136889428Y-94198597D01*
X136889429Y-94198598D01*
X136892264Y-94202787D01*
X137009901Y-94376598D01*
X137009909Y-94376607D01*
X137161892Y-94528590D01*
X137161901Y-94528598D01*
X137259270Y-94594498D01*
X137339902Y-94649071D01*
X137537491Y-94733684D01*
X137747524Y-94779374D01*
X137795802Y-94782250D01*
X137795814Y-94782250D01*
X139217686Y-94782250D01*
X139217698Y-94782250D01*
X139265976Y-94779374D01*
X139476009Y-94733684D01*
X139673598Y-94649071D01*
X139851605Y-94528593D01*
X140003593Y-94376605D01*
X140010062Y-94367048D01*
X140047045Y-94312404D01*
X140124071Y-94198598D01*
X140208684Y-94001009D01*
X140254374Y-93790976D01*
X140257250Y-93742698D01*
X140257250Y-90320802D01*
X140255537Y-90292054D01*
X143081750Y-90292054D01*
X143081750Y-91781750D01*
X144406750Y-91781750D01*
X144406750Y-92281750D01*
X143081750Y-92281750D01*
X143081750Y-93771445D01*
X143097122Y-93927535D01*
X143157879Y-94127822D01*
X143256541Y-94312404D01*
X143389313Y-94474187D01*
X143551096Y-94606959D01*
X143735678Y-94705621D01*
X143935965Y-94766378D01*
X144092055Y-94781751D01*
X144456750Y-94781751D01*
X144456750Y-93148738D01*
X144466690Y-93165955D01*
X144522545Y-93221810D01*
X144590954Y-93261306D01*
X144667254Y-93281750D01*
X144746246Y-93281750D01*
X144822546Y-93261306D01*
X144890955Y-93221810D01*
X144946810Y-93165955D01*
X144956750Y-93148738D01*
X144956750Y-94781751D01*
X145321445Y-94781751D01*
X145477534Y-94766378D01*
X145677821Y-94705621D01*
X145862403Y-94606959D01*
X146024186Y-94474187D01*
X146156958Y-94312404D01*
X146255620Y-94127822D01*
X146316377Y-93927535D01*
X146331750Y-93771445D01*
X146331750Y-92281750D01*
X145006750Y-92281750D01*
X145006750Y-91781750D01*
X146331750Y-91781750D01*
X146331750Y-90292054D01*
X146316377Y-90135964D01*
X146255620Y-89935677D01*
X146156958Y-89751095D01*
X146024186Y-89589312D01*
X145862403Y-89456540D01*
X145677821Y-89357878D01*
X145477534Y-89297121D01*
X145321445Y-89281749D01*
X144956750Y-89281749D01*
X144956750Y-90914761D01*
X144946810Y-90897545D01*
X144890955Y-90841690D01*
X144822546Y-90802194D01*
X144746246Y-90781750D01*
X144667254Y-90781750D01*
X144590954Y-90802194D01*
X144522545Y-90841690D01*
X144466690Y-90897545D01*
X144456750Y-90914761D01*
X144456750Y-89281749D01*
X144092055Y-89281749D01*
X143935965Y-89297121D01*
X143735678Y-89357878D01*
X143551096Y-89456540D01*
X143389313Y-89589312D01*
X143256541Y-89751095D01*
X143157879Y-89935677D01*
X143097122Y-90135964D01*
X143081750Y-90292054D01*
X140255537Y-90292054D01*
X140254374Y-90272524D01*
X140208684Y-90062491D01*
X140124991Y-89867051D01*
X140124072Y-89864904D01*
X140003598Y-89686901D01*
X140003590Y-89686892D01*
X139851607Y-89534909D01*
X139851598Y-89534901D01*
X139673595Y-89414427D01*
X139476010Y-89329816D01*
X139475999Y-89329813D01*
X139265981Y-89284127D01*
X139265980Y-89284126D01*
X139265976Y-89284126D01*
X139217698Y-89281250D01*
X137795802Y-89281250D01*
X137747524Y-89284126D01*
X137747519Y-89284126D01*
X137747518Y-89284127D01*
X137537500Y-89329813D01*
X137537489Y-89329816D01*
X137339904Y-89414427D01*
X137161901Y-89534901D01*
X137161892Y-89534909D01*
X137009909Y-89686892D01*
X137009901Y-89686901D01*
X136889427Y-89864904D01*
X136804816Y-90062489D01*
X136804813Y-90062500D01*
X136775226Y-90198513D01*
X136759126Y-90272524D01*
X136756250Y-90320802D01*
X131800500Y-90320802D01*
X131800500Y-88839194D01*
X162909059Y-88839194D01*
X162909059Y-88839205D01*
X162928389Y-89072483D01*
X162928389Y-89072486D01*
X162928390Y-89072487D01*
X162985854Y-89299410D01*
X163079886Y-89513780D01*
X163207919Y-89709749D01*
X163366461Y-89881972D01*
X163435462Y-89935677D01*
X163532682Y-90011347D01*
X163573495Y-90068057D01*
X163577169Y-90137830D01*
X163542537Y-90198513D01*
X163532682Y-90207053D01*
X163366463Y-90336426D01*
X163366458Y-90336431D01*
X163207919Y-90508651D01*
X163079884Y-90704623D01*
X162985854Y-90918989D01*
X162928389Y-91145916D01*
X162909059Y-91379194D01*
X162909059Y-91379205D01*
X162928389Y-91612483D01*
X162928389Y-91612486D01*
X162928390Y-91612487D01*
X162985854Y-91839410D01*
X163079886Y-92053780D01*
X163207919Y-92249749D01*
X163366461Y-92421972D01*
X163428627Y-92470358D01*
X163500048Y-92525947D01*
X163540861Y-92582657D01*
X163544534Y-92652430D01*
X163509903Y-92713114D01*
X163500048Y-92721653D01*
X163366463Y-92825626D01*
X163366458Y-92825631D01*
X163207919Y-92997851D01*
X163079884Y-93193823D01*
X162985854Y-93408189D01*
X162928389Y-93635116D01*
X162909059Y-93868394D01*
X162909059Y-93868405D01*
X162928389Y-94101683D01*
X162985854Y-94328610D01*
X163048568Y-94471584D01*
X163079886Y-94542980D01*
X163207919Y-94738949D01*
X163366461Y-94911172D01*
X163425906Y-94957440D01*
X163471252Y-94992734D01*
X163512065Y-95049444D01*
X163518307Y-95094355D01*
X164156165Y-95732212D01*
X164114108Y-95743482D01*
X163988692Y-95815890D01*
X163886290Y-95918292D01*
X163813882Y-96043708D01*
X163802612Y-96085765D01*
X163166542Y-95449695D01*
X163080326Y-95581660D01*
X163080324Y-95581664D01*
X162986328Y-95795954D01*
X162928884Y-96022799D01*
X162909561Y-96255994D01*
X162909561Y-96256005D01*
X162928884Y-96489200D01*
X162986328Y-96716045D01*
X163080326Y-96930340D01*
X163166541Y-97062303D01*
X163802612Y-96426233D01*
X163813882Y-96468292D01*
X163886290Y-96593708D01*
X163988692Y-96696110D01*
X164114108Y-96768518D01*
X164156165Y-96779787D01*
X163519050Y-97416901D01*
X163519050Y-97416902D01*
X163551460Y-97442128D01*
X163757260Y-97553502D01*
X163757269Y-97553505D01*
X163978584Y-97629483D01*
X164209399Y-97668000D01*
X164443401Y-97668000D01*
X164674215Y-97629483D01*
X164822321Y-97578638D01*
X164892119Y-97575488D01*
X164952541Y-97610574D01*
X164984401Y-97672756D01*
X164977586Y-97742293D01*
X164977145Y-97743371D01*
X164932185Y-97851913D01*
X164932182Y-97851925D01*
X164899500Y-98016228D01*
X164899500Y-98183771D01*
X164932182Y-98348074D01*
X164932184Y-98348082D01*
X164996295Y-98502860D01*
X165089373Y-98642162D01*
X165207837Y-98760626D01*
X165300494Y-98822537D01*
X165347137Y-98853703D01*
X165501918Y-98917816D01*
X165666228Y-98950499D01*
X165666232Y-98950500D01*
X165666233Y-98950500D01*
X167133768Y-98950500D01*
X167133769Y-98950499D01*
X167298082Y-98917816D01*
X167452863Y-98853703D01*
X167592162Y-98760626D01*
X167710626Y-98642162D01*
X167803703Y-98502863D01*
X167867816Y-98348082D01*
X167900500Y-98183767D01*
X167900500Y-98016233D01*
X167867816Y-97851918D01*
X167803703Y-97697137D01*
X167758498Y-97629483D01*
X167710626Y-97557837D01*
X167592162Y-97439373D01*
X167452860Y-97346295D01*
X167298082Y-97282184D01*
X167298074Y-97282182D01*
X167133771Y-97249500D01*
X167133767Y-97249500D01*
X165666233Y-97249500D01*
X165633546Y-97256001D01*
X165608176Y-97261048D01*
X165538585Y-97254819D01*
X165483408Y-97211956D01*
X165460164Y-97146066D01*
X165476232Y-97078069D01*
X165480178Y-97071608D01*
X165572472Y-96930342D01*
X165666471Y-96716045D01*
X165723915Y-96489200D01*
X165743239Y-96256005D01*
X165743239Y-96255994D01*
X165723915Y-96022799D01*
X165666471Y-95795954D01*
X165572473Y-95581659D01*
X165486256Y-95449694D01*
X164850187Y-96085764D01*
X164838918Y-96043708D01*
X164766510Y-95918292D01*
X164664108Y-95815890D01*
X164538692Y-95743482D01*
X164496634Y-95732212D01*
X165134937Y-95093908D01*
X165149437Y-95030143D01*
X165181539Y-94992740D01*
X165286339Y-94911172D01*
X165441735Y-94742365D01*
X165501619Y-94706378D01*
X165571457Y-94708478D01*
X165629073Y-94748001D01*
X165656175Y-94812401D01*
X165654580Y-94850540D01*
X165649500Y-94876081D01*
X165649500Y-94876082D01*
X165649500Y-95023918D01*
X165649500Y-95023920D01*
X165649499Y-95023920D01*
X165678340Y-95168907D01*
X165678343Y-95168917D01*
X165734912Y-95305488D01*
X165734919Y-95305501D01*
X165817048Y-95428415D01*
X165817051Y-95428419D01*
X165921580Y-95532948D01*
X165921584Y-95532951D01*
X166044498Y-95615080D01*
X166044511Y-95615087D01*
X166181082Y-95671656D01*
X166181087Y-95671658D01*
X166181091Y-95671658D01*
X166181092Y-95671659D01*
X166326079Y-95700500D01*
X166326082Y-95700500D01*
X166473920Y-95700500D01*
X166585321Y-95678340D01*
X166618913Y-95671658D01*
X166755495Y-95615084D01*
X166878416Y-95532951D01*
X166982951Y-95428416D01*
X167065084Y-95305495D01*
X167121658Y-95168913D01*
X167144327Y-95054950D01*
X167150500Y-95023920D01*
X167150500Y-94876079D01*
X167121659Y-94731092D01*
X167121658Y-94731091D01*
X167121658Y-94731087D01*
X167111110Y-94705621D01*
X167065087Y-94594511D01*
X167065080Y-94594498D01*
X166982951Y-94471584D01*
X166982948Y-94471580D01*
X166878419Y-94367051D01*
X166878415Y-94367048D01*
X166755501Y-94284919D01*
X166755488Y-94284912D01*
X166618917Y-94228343D01*
X166618907Y-94228340D01*
X166473920Y-94199500D01*
X166473918Y-94199500D01*
X166326082Y-94199500D01*
X166326080Y-94199500D01*
X166181092Y-94228340D01*
X166181082Y-94228343D01*
X166044511Y-94284912D01*
X166044498Y-94284919D01*
X165921584Y-94367048D01*
X165921579Y-94367052D01*
X165885999Y-94402632D01*
X165824676Y-94436117D01*
X165754984Y-94431131D01*
X165699051Y-94389259D01*
X165674635Y-94323795D01*
X165678113Y-94284510D01*
X165724410Y-94101687D01*
X165743741Y-93868400D01*
X165737325Y-93790976D01*
X165724410Y-93635116D01*
X165724410Y-93635113D01*
X165666946Y-93408190D01*
X165572914Y-93193820D01*
X165444881Y-92997851D01*
X165286339Y-92825628D01*
X165251381Y-92798419D01*
X165152752Y-92721653D01*
X165111939Y-92664943D01*
X165108264Y-92595170D01*
X165142896Y-92534487D01*
X165152752Y-92525947D01*
X165198529Y-92490316D01*
X165286339Y-92421972D01*
X165444881Y-92249749D01*
X165572914Y-92053780D01*
X165666946Y-91839410D01*
X165724410Y-91612487D01*
X165743741Y-91379200D01*
X165743741Y-91379194D01*
X165724168Y-91142986D01*
X165738249Y-91074550D01*
X165787094Y-91024591D01*
X165855195Y-91008970D01*
X165916635Y-91029644D01*
X166044498Y-91115080D01*
X166044511Y-91115087D01*
X166118940Y-91145916D01*
X166181087Y-91171658D01*
X166181091Y-91171658D01*
X166181092Y-91171659D01*
X166326079Y-91200500D01*
X166326082Y-91200500D01*
X166473920Y-91200500D01*
X166571462Y-91181096D01*
X166618913Y-91171658D01*
X166755495Y-91115084D01*
X166878416Y-91032951D01*
X166982951Y-90928416D01*
X167065084Y-90805495D01*
X167074920Y-90781750D01*
X167106866Y-90704623D01*
X167121658Y-90668913D01*
X167150500Y-90523918D01*
X167150500Y-90376082D01*
X167150500Y-90376079D01*
X167121659Y-90231092D01*
X167121658Y-90231091D01*
X167121658Y-90231087D01*
X167111703Y-90207053D01*
X167065087Y-90094511D01*
X167065080Y-90094498D01*
X166982951Y-89971584D01*
X166982948Y-89971580D01*
X166878419Y-89867051D01*
X166878415Y-89867048D01*
X166755501Y-89784919D01*
X166755488Y-89784912D01*
X166618917Y-89728343D01*
X166618907Y-89728340D01*
X166473920Y-89699500D01*
X166473918Y-89699500D01*
X166326082Y-89699500D01*
X166326080Y-89699500D01*
X166181092Y-89728340D01*
X166181082Y-89728343D01*
X166044511Y-89784912D01*
X166044498Y-89784919D01*
X165921584Y-89867048D01*
X165921580Y-89867051D01*
X165817051Y-89971580D01*
X165817048Y-89971584D01*
X165734919Y-90094498D01*
X165734912Y-90094511D01*
X165678343Y-90231082D01*
X165678340Y-90231092D01*
X165649500Y-90376079D01*
X165649500Y-90413141D01*
X165629815Y-90480180D01*
X165577011Y-90525935D01*
X165507853Y-90535879D01*
X165444297Y-90506854D01*
X165434270Y-90497124D01*
X165356958Y-90413141D01*
X165286339Y-90336428D01*
X165151003Y-90231092D01*
X165120118Y-90207053D01*
X165079305Y-90150343D01*
X165075630Y-90080570D01*
X165110262Y-90019887D01*
X165120118Y-90011347D01*
X165217338Y-89935677D01*
X165286339Y-89881972D01*
X165444881Y-89709749D01*
X165572914Y-89513780D01*
X165666946Y-89299410D01*
X165724410Y-89072487D01*
X165743741Y-88839200D01*
X165724410Y-88605913D01*
X165666946Y-88378990D01*
X165642960Y-88324309D01*
X165634058Y-88255011D01*
X165664035Y-88191898D01*
X165723374Y-88155011D01*
X165756517Y-88150500D01*
X167082968Y-88150500D01*
X167082969Y-88150499D01*
X167247282Y-88117816D01*
X167402063Y-88053703D01*
X167541362Y-87960626D01*
X167659826Y-87842162D01*
X167752903Y-87702863D01*
X167817016Y-87548082D01*
X167849700Y-87383767D01*
X167849700Y-87216233D01*
X167817016Y-87051918D01*
X167752903Y-86897137D01*
X167721737Y-86850494D01*
X167659826Y-86757837D01*
X167541362Y-86639373D01*
X167402060Y-86546295D01*
X167247282Y-86482184D01*
X167247274Y-86482182D01*
X167082971Y-86449500D01*
X167082967Y-86449500D01*
X165615433Y-86449500D01*
X165615428Y-86449500D01*
X165451125Y-86482182D01*
X165451117Y-86482184D01*
X165296339Y-86546295D01*
X165157037Y-86639373D01*
X165038573Y-86757837D01*
X164945495Y-86897139D01*
X164881384Y-87051917D01*
X164881382Y-87051925D01*
X164848700Y-87216228D01*
X164848700Y-87351414D01*
X164829015Y-87418453D01*
X164776211Y-87464208D01*
X164707053Y-87474152D01*
X164684442Y-87468697D01*
X164674339Y-87465229D01*
X164443443Y-87426700D01*
X164209357Y-87426700D01*
X163978460Y-87465229D01*
X163757068Y-87541234D01*
X163757059Y-87541237D01*
X163551185Y-87652651D01*
X163420821Y-87754117D01*
X163366461Y-87796428D01*
X163366458Y-87796430D01*
X163366458Y-87796431D01*
X163207919Y-87968651D01*
X163079884Y-88164623D01*
X162985854Y-88378989D01*
X162928389Y-88605916D01*
X162909059Y-88839194D01*
X131800500Y-88839194D01*
X131800500Y-85524500D01*
X131820185Y-85457461D01*
X131872989Y-85411706D01*
X131924500Y-85400500D01*
X168375500Y-85400500D01*
X168442539Y-85420185D01*
G37*
%TD.AperFunction*%
%TD*%
M02*
