M48
; DRILL file {KiCad 8.0.2-1} date 2024-09-02T18:13:00-0400
; FORMAT={3:3/ absolute / metric / suppress leading zeros}
; #@! TF.CreationDate,2024-09-02T18:13:00-04:00
; #@! TF.GenerationSoftware,Kicad,Pcbnew,8.0.2-1
; #@! TF.FileFunction,MixedPlating,1,2
FMAT,2
METRIC,TZ
; #@! TA.AperFunction,Plated,PTH,ViaDrill
T1C0.300
; #@! TA.AperFunction,Plated,PTH,ComponentDrill
T2C0.600
; #@! TA.AperFunction,Plated,PTH,ComponentDrill
T3C1.100
; #@! TA.AperFunction,NonPlated,NPTH,ComponentDrill
T4C1.000
; #@! TA.AperFunction,NonPlated,NPTH,ComponentDrill
T5C1.200
%
G90
G05
T1
X152600Y-89200
X159900Y-89100
X161200Y-89100
X162600Y-87100
T3
X164326Y-88839
X164326Y-91379
X164326Y-93868
X164326Y-96256
T4
X166400Y-90450
X166400Y-94950
T2
G00X138507Y-93132
M15
G01X138507Y-90932
M16
G05
G00X142357Y-96732
M15
G01X140657Y-96732
M16
G05
G00X144707Y-91082
M15
G01X144707Y-92982
M16
G05
T5
G00X166999Y-87300
M15
G01X165699Y-87300
M16
G05
G00X167050Y-98100
M15
G01X165750Y-98100
M16
G05
M30
